REM MD5 271c1603aa6febf0a1fc5ffe3a06343a
FILE "Galaxian^3 (Japan).bin" BINARY
  TRACK 01 MODE2/2352
    INDEX 01 00:00:00
  TRACK 02 AUDIO
    INDEX 00 55:10:68
    INDEX 01 55:12:68
  TRACK 03 AUDIO
    INDEX 00 56:05:26
    INDEX 01 56:07:26
  TRACK 04 AUDIO
    INDEX 00 56:24:49
    INDEX 01 56:26:49
REM LEADOUT 59:26:50
